# xmcd CD database file
#
# Track frame offsets:
#	150
#	17721
#	33718
#	51054
#	69668
#	83683
#	100479
#	117500
#	132553
#	153086
#	168311
#	186525
#
# Disc length: 2702 seconds
#
# Revision: 0
# Processed by: cddbd v1.5.2PL0 Copyright (c) Steve Scherf et al.
# Submitted via: Feurio! 1.68 - http://www.feurio.com
#
DISCID=a60a8c0c
DTITLE=Seal - Soul
DYEAR=1900
DGENRE=R&B
TTITLE0=A Change Is Gonna Come
TTITLE1=I Can't Stand The Rain
TTITLE2=It's A Man's, Man's World
TTITLE3=Here I Am (Come and Take Me)
TTITLE4=I've Been Loving You Too Long
TTITLE5=It' Alright
TTITLE6=If You Don't Know Me By Now
TTITLE7=Knock On Wood
TTITLE8=I'm Still In Love With You
TTITLE9=Free
TTITLE10=Stand By Me
TTITLE11=People Get Ready
EXTD=
EXTT0=
EXTT1=
EXTT2=
EXTT3=
EXTT4=
EXTT5=
EXTT6=
EXTT7=
EXTT8=
EXTT9=
EXTT10=
EXTT11=
PLAYORDER=
